<svg data-name="グループ 286" xmlns="http://www.w3.org/2000/svg" width="53.708" height="68.746"><defs><clipPath id="a"><path data-name="長方形 344" fill="none" stroke="#232e83" stroke-width="3" d="M0 0h53.708v68.746H0z"/></clipPath></defs><g data-name="グループ 285" clip-path="url(#a)" fill="none" stroke="#232e83" stroke-linecap="round" stroke-linejoin="round" stroke-width="3"><path data-name="パス 412" d="M21.483 29.009v-8.606a1.068 1.068 0 011.068-1.068h8.606a1.068 1.068 0 011.068 1.068v8.606a1.068 1.068 0 001.067 1.068h8.611a1.067 1.067 0 011.067 1.068v8.606a1.067 1.067 0 01-1.067 1.067h-8.611a1.068 1.068 0 00-1.067 1.068v8.606a1.068 1.068 0 01-1.068 1.068H22.55a1.068 1.068 0 01-1.068-1.068v-8.606a1.068 1.068 0 00-1.068-1.068h-8.605a1.068 1.068 0 01-1.068-1.067v-8.607a1.068 1.068 0 011.068-1.068h8.606a1.068 1.068 0 001.068-1.067z"/><path data-name="パス 413" d="M28.15 1.524c7.432 5.876 17.934 8.878 22.672 9.6a2.154 2.154 0 011.811 2.144v30.608c0 15.1-21.195 22.456-25.149 23.7a2.085 2.085 0 01-1.262 0c-3.954-1.242-25.149-8.6-25.149-23.7V13.269a2.153 2.153 0 011.817-2.143c4.738-.723 15.241-3.725 22.672-9.6a2.09 2.09 0 012.588-.002z"/></g></svg>