<svg xmlns="http://www.w3.org/2000/svg" width="71" height="67"><defs><clipPath id="a"><path data-name="長方形 341" fill="none" stroke="#fff" stroke-width="2" d="M0 0h71v67H0z"/></clipPath></defs><g data-name="グループ 272"><g data-name="グループ 271" clip-path="url(#a)" fill="none" stroke="#fff" stroke-linecap="round" stroke-linejoin="round" stroke-width="2"><path data-name="パス 385" d="M14.858 42.65L1.54 30.696a1.164 1.164 0 01-.138-1.591l3.239-4.092a2.239 2.239 0 011.787-.865 11.684 11.684 0 016.835 2.363c9.129 6.916 7.988 12.68 7.988 12.68h44.452"/><path data-name="パス 386" d="M70.314 44.955v1.153a1.146 1.146 0 01-1.141 1.153H25.359"/><path data-name="線 5" d="M30 48H1"/><path data-name="パス 387" d="M21.094 28.311a2.005 2.005 0 00.127-.207 5.178 5.178 0 00-.772-6.34l-2.444-2.444a5.176 5.176 0 00-7.331 0 5.646 5.646 0 00-.68.83"/><path data-name="パス 388" d="M41.082 34.581a4.611 4.611 0 00-3.043-1.153H26.512l-3.3-3.112-2.118-2.006"/><path data-name="パス 389" d="M28.345 28.817h32.748a4.61 4.61 0 014.611 4.611"/><path data-name="線 6" d="M70 26v19"/><ellipse data-name="楕円形 29" cx="4.5" cy="5" rx="4.5" ry="5" transform="translate(6 56)"/><path data-name="線 7" d="M11 56v-8"/><circle data-name="楕円形 30" cx="5" cy="5" r="5" transform="translate(56 56)"/><path data-name="線 8" d="M61 56v-8"/><path data-name="線 9" d="M15 53h41"/><path data-name="線 10" d="M46 1v24"/><path data-name="パス 390" d="M32.275 1.153a3.458 3.458 0 006.916 0h13.832a3.458 3.458 0 106.916 0"/><path data-name="パス 391" d="M35.734 20.749h0a4.611 4.611 0 01-4.611-4.611v-4.611a2.305 2.305 0 012.305-2.305h4.611a2.305 2.305 0 012.305 2.305v4.611a4.611 4.611 0 01-4.61 4.611z"/><path data-name="線 11" d="M36 4v5"/><path data-name="線 12" d="M36 21v4"/></g></g></svg>