<svg xmlns="http://www.w3.org/2000/svg" width="68.182" height="57.669"><g data-name="グループ 287"><g data-name="グループ 275" fill="none" stroke="#232e83" stroke-linecap="round" stroke-linejoin="round" stroke-width="3"><path data-name="パス 392" d="M5.337 33.04c8.61 14.687 28.754 23.129 28.754 23.129S66.682 42.5 66.682 19.719A18.1 18.1 0 0048.7 1.5a17.873 17.873 0 00-14.613 7.633A17.873 17.873 0 0019.478 1.5 18.1 18.1 0 001.5 19.719a23.646 23.646 0 00.515 4.91"/><path data-name="パス 393" d="M1.5 28.834h15.048a1.051 1.051 0 01.981.674l3.712 9.651a1.051 1.051 0 002.011-.165l4.76-23.007a1.051 1.051 0 012.033-.1l3.815 12.209a1.052 1.052 0 001 .738h11.847"/></g></g></svg>