<svg xmlns="http://www.w3.org/2000/svg" width="52.73" height="44.547"><g data-name="グループ 274"><g data-name="グループ 275" fill="none" stroke="#232e83" stroke-linecap="round" stroke-linejoin="round" stroke-width="2"><path data-name="パス 392" d="M3.986 25.547c6.7 11.431 22.378 18 22.378 18S51.73 32.911 51.73 15.18A14.084 14.084 0 0037.738 1a13.91 13.91 0 00-11.373 5.94A13.91 13.91 0 0014.992 1 14.084 14.084 0 001 15.18 18.4 18.4 0 001.4 19"/><path data-name="パス 393" d="M1 22.274h11.711a.818.818 0 01.764.524l2.889 7.512a.818.818 0 001.565-.128l3.7-17.906a.818.818 0 011.582-.078l2.969 9.5a.818.818 0 00.781.574h9.217"/></g></g></svg>