<svg data-name="グループ 279" xmlns="http://www.w3.org/2000/svg" width="80.181" height="35.398"><defs><clipPath id="a"><path data-name="長方形 343" fill="#fff" d="M0 0h80.181v35.398H0z"/></clipPath></defs><g data-name="グループ 278" clip-path="url(#a)" fill="#fff"><path data-name="パス 402" d="M2.508 30.012c0-1.817-.4-4.323.55-5.956 1.093-1.875 4.317-1.962 6.287-2.388a18.837 18.837 0 018.125-.168c1.827.387 5.139.567 6.527 1.832 1.172 1.069 2.923-.673 1.746-1.746-1.963-1.789-5.19-1.953-7.724-2.49a22.328 22.328 0 00-9.634.257c-2.61.564-5.581.654-7.215 3.075-1.497 2.21-1.131 5.044-1.131 7.584a1.235 1.235 0 002.469 0"/><path data-name="パス 403" d="M5.538 8.258a8.258 8.258 0 0016.516 0 8.258 8.258 0 00-16.516 0c-.053 1.589 2.416 1.587 2.469 0a5.789 5.789 0 1111.578 0 5.789 5.789 0 01-11.578 0c-.053-1.585-2.523-1.592-2.469 0"/><path data-name="パス 404" d="M80.137 30.013c0-2.536.366-5.369-1.129-7.585-1.633-2.42-4.606-2.51-7.215-3.075a22.325 22.325 0 00-9.635-.257c-2.532.536-5.763.7-7.724 2.49-1.177 1.073.573 2.815 1.746 1.746 1.374-1.253 4.613-1.421 6.419-1.808a18.972 18.972 0 018.232.145c1.864.4 5.054.511 6.166 2.2 1.092 1.656.671 4.255.671 6.148a1.235 1.235 0 002.469 0"/><path data-name="パス 405" d="M72.173 8.258a5.789 5.789 0 11-11.578 0 5.789 5.789 0 0111.578 0c.053 1.585 2.523 1.592 2.469 0a8.258 8.258 0 00-16.516 0 8.258 8.258 0 0016.516 0c.053-1.589-2.416-1.587-2.469 0"/><path data-name="パス 406" d="M28.803 34.206c0-2.818-.642-6.834 2.971-7.535 2.734-.531 5.516-1.416 8.317-1.416s5.414.974 8.152 1.394c3.767.578 3.136 4.682 3.136 7.557a1.235 1.235 0 002.469 0c0-2.534.364-5.372-1.129-7.585-1.649-2.446-4.731-2.537-7.372-3.108a22.23 22.23 0 00-9.585-.2c-2.287.485-5.594.63-7.373 2.242-2.472 2.241-2.054 5.642-2.054 8.651a1.235 1.235 0 002.469 0"/><path data-name="パス 407" d="M31.832 12.457a8.258 8.258 0 108.258-8.258 8.371 8.371 0 00-8.258 8.258c-.053 1.589 2.416 1.587 2.469 0a5.789 5.789 0 116.03 5.781 5.862 5.862 0 01-6.03-5.781c-.053-1.585-2.523-1.592-2.469 0"/></g></svg>