<svg id="グループ_575" data-name="グループ 575" xmlns="http://www.w3.org/2000/svg" xmlns:xlink="http://www.w3.org/1999/xlink" width="46.144" height="59.064" viewBox="0 0 46.144 59.064">
  <defs>
    <clipPath id="clip-path">
      <rect id="長方形_344" data-name="長方形 344" width="46.144" height="59.064" fill="none" stroke="#232e83" stroke-width="2"/>
    </clipPath>
  </defs>
  <g id="グループ_285" data-name="グループ 285" clip-path="url(#clip-path)">
    <path id="パス_412" data-name="パス 412" d="M44.067,71.021V63.627a.917.917,0,0,1,.917-.917h7.394a.917.917,0,0,1,.917.917v7.394a.917.917,0,0,0,.917.917h7.394a.917.917,0,0,1,.917.917V80.25a.917.917,0,0,1-.917.917H54.213a.917.917,0,0,0-.917.917v7.394a.917.917,0,0,1-.917.917H44.984a.917.917,0,0,1-.917-.917V82.085a.917.917,0,0,0-.917-.917H35.755a.917.917,0,0,1-.917-.917V72.856a.917.917,0,0,1,.917-.917h7.394A.917.917,0,0,0,44.067,71.021Z" transform="translate(-25.609 -46.098)" fill="none" stroke="#232e83" stroke-linecap="round" stroke-linejoin="round" stroke-width="2"/>
    <path id="パス_413" data-name="パス 413" d="M26.746,3.871C33.132,8.92,42.155,11.5,46.226,12.12a1.85,1.85,0,0,1,1.556,1.842v26.3c0,12.971-18.21,19.294-21.607,20.361a1.791,1.791,0,0,1-1.084,0c-3.4-1.067-21.607-7.39-21.607-20.361v-26.3A1.85,1.85,0,0,1,5.04,12.12c4.071-.621,13.094-3.2,19.479-8.249A1.8,1.8,0,0,1,26.746,3.871Z" transform="translate(-2.561 -2.561)" fill="none" stroke="#232e83" stroke-linecap="round" stroke-linejoin="round" stroke-width="2"/>
  </g>
</svg>
