<svg xmlns="http://www.w3.org/2000/svg" width="56" height="75"><defs><clipPath id="a"><path data-name="長方形 338" fill="none" stroke="#f7fffd" stroke-width="1.5" d="M-.318 0h56v75h-56z"/></clipPath></defs><g data-name="グループ 268"><path data-name="パス 370" d="M14.973 60.438l1.738 1.738 3.476-3.476" fill="none" stroke="#f7fffd" stroke-linecap="round" stroke-linejoin="round" stroke-width="1.5"/><path data-name="パス 372" d="M14.973 45.378l1.738 1.738 3.476-3.476" fill="none" stroke="#f7fffd" stroke-linecap="round" stroke-linejoin="round" stroke-width="1.5"/><g data-name="グループ 553" fill="none" stroke="#f7fffd" stroke-linecap="round" stroke-linejoin="round" stroke-width="1.5"><path data-name="パス 371" d="M15.946 56.383h-4.449v9.268h9.268v-.973"/><path data-name="線 1" d="M26.558 57.542h17.378"/><path data-name="線 2" d="M26.558 63.334h11.585"/><path data-name="パス 373" d="M15.946 41.322h-4.449v9.268h9.268v-.973"/><path data-name="線 3" d="M26.558 42.481h17.378"/><path data-name="線 4" d="M26.558 48.274h11.585"/></g><g data-name="グループ 264"><g data-name="グループ 263" transform="translate(.318)" clip-path="url(#a)" fill="none" stroke="#f7fffd" stroke-linecap="round" stroke-linejoin="round" stroke-width="1.5"><path data-name="パス 374" d="M11.328 27.948h10.7a.747.747 0 01.7.479l2.639 6.862a.747.747 0 001.429-.117l3.384-16.357a.747.747 0 011.445-.071l2.712 8.68a.747.747 0 00.713.524h8.42"/><path data-name="パス 375" d="M47.093 9.679h4.634a2.324 2.324 0 012.317 2.317v59.083a2.324 2.324 0 01-2.317 2.317H3.069a2.324 2.324 0 01-2.317-2.317V11.996a2.324 2.324 0 012.317-2.317h4.634"/><path data-name="パス 376" d="M40.137 6.203h-5.788V3.886a2.317 2.317 0 00-2.317-2.317h-9.268a2.317 2.317 0 00-2.317 2.317v2.317h-5.793a2.317 2.317 0 00-2.317 2.317v2.317a1.158 1.158 0 001.159 1.159h27.8a1.158 1.158 0 001.159-1.159V8.52a2.317 2.317 0 00-2.318-2.317z"/></g></g></g></svg>