<svg xmlns="http://www.w3.org/2000/svg" width="42" height="58"><defs><clipPath id="a"><path data-name="長方形 338" fill="none" stroke="#13acb9" stroke-width="1.5" d="M.173.007h42v58h-42z"/></clipPath></defs><g data-name="グループ 265"><path data-name="パス 370" d="M10.972 46.652l1.338 1.338 2.675-2.675" fill="none" stroke="#13acb9" stroke-linecap="round" stroke-linejoin="round" stroke-width="1.5"/><path data-name="パス 371" d="M11.72 43.531H8.296v7.134h7.134v-.749" fill="none" stroke="#13acb9" stroke-linecap="round" stroke-linejoin="round" stroke-width="1.5"/><path data-name="線 1" fill="none" stroke="#13acb9" stroke-linecap="round" stroke-linejoin="round" stroke-width="1.5" d="M19.889 44.423h13.376"/><path data-name="線 2" fill="none" stroke="#13acb9" stroke-linecap="round" stroke-linejoin="round" stroke-width="1.5" d="M19.889 48.881h8.917"/><path data-name="パス 372" d="M10.972 35.059l1.338 1.338 2.675-2.675" fill="none" stroke="#13acb9" stroke-linecap="round" stroke-linejoin="round" stroke-width="1.5"/><path data-name="パス 373" d="M11.72 31.939H8.296v7.134h7.134v-.749" fill="none" stroke="#13acb9" stroke-linecap="round" stroke-linejoin="round" stroke-width="1.5"/><path data-name="線 3" fill="none" stroke="#13acb9" stroke-linecap="round" stroke-linejoin="round" stroke-width="1.5" d="M19.889 32.83h13.376"/><path data-name="線 4" fill="none" stroke="#13acb9" stroke-linecap="round" stroke-linejoin="round" stroke-width="1.5" d="M19.889 37.289h8.917"/><g data-name="グループ 264"><g data-name="グループ 263" clip-path="url(#a)" fill="none" stroke="#13acb9" stroke-linecap="round" stroke-linejoin="round" stroke-width="1.5" transform="translate(-.173 -.007)"><path data-name="パス 374" d="M8.584 21.651h8.235a.575.575 0 01.537.369l2.031 5.282a.575.575 0 001.1-.09l2.6-12.59a.575.575 0 011.113-.055l2.088 6.681a.575.575 0 00.549.4h6.481"/><path data-name="パス 375" d="M36.114 7.589h3.567a1.789 1.789 0 011.783 1.783v45.479a1.789 1.789 0 01-1.783 1.783H2.227a1.789 1.789 0 01-1.783-1.783V9.372a1.789 1.789 0 011.783-1.783h3.567"/><path data-name="パス 376" d="M30.761 4.913h-4.457V3.129a1.784 1.784 0 00-1.783-1.783h-7.134a1.784 1.784 0 00-1.783 1.783v1.784h-4.46a1.784 1.784 0 00-1.783 1.783v1.783a.892.892 0 00.892.892h21.4a.892.892 0 00.892-.892V6.696a1.784 1.784 0 00-1.784-1.783z"/></g></g></g></svg>