<svg width="68" height="48" fill="none" xmlns="http://www.w3.org/2000/svg"><g clip-path="url(#clip0_686_31)"><mask id="a" style="mask-type:luminance" maskUnits="userSpaceOnUse" x="0" y="0" width="68" height="48"><path d="M67.526 0H0v47.542h67.526V0z" fill="#fff"/></mask><g mask="url(#a)" fill="#1346B9"><path d="M58.322 41.009l2.365 5.89.845-1.11H5.994l.846 1.11 2.364-5.89c.42-1.047-1.275-1.5-1.691-.466l-2.365 5.89a.883.883 0 00.845 1.11h55.539a.883.883 0 00.845-1.11l-2.364-5.89c-.415-1.034-2.112-.583-1.691.466zM50.83 17.67l-2.742-6.83a.914.914 0 00-.845-.644h-26.96a.91.91 0 00-.846.644l-2.741 6.83c-.42 1.046 1.275 1.5 1.691.465l2.742-6.829-.845.644h26.962l-.846-.644 2.742 6.83c.415 1.033 2.112.582 1.691-.467"/><path d="M14.529 39.955l.158-9.294a.877.877 0 00-1.753 0l-.158 9.294a.877.877 0 001.753 0z"/><path d="M9.223 26.718c1.82 2.447 3.963 5.145 6.9 6.266 1.27.386 2.588.586 3.915.592 1.444.1 2.89.185 4.335.281 2.651.177 5.354-1.419 5.037-4.414a4.317 4.317 0 00-1.878-3.123 6.118 6.118 0 00-2.9-.683 626.89 626.89 0 01-6.264-.658l.632.255a395.61 395.61 0 01-4.562-4.974c-2.122-2.37-3.989-5.738-7.729-5.257a7.389 7.389 0 00-5.964 4.68C-.264 22.308.2 25.534.153 28.291c-.064 3.615-.192 7.232-.142 10.843a.877.877 0 001.753 0c-.071-5.206.227-10.41.183-15.616-.021-2.437.612-4.844 2.9-6.1 3.252-1.78 5.493.4 7.343 2.941a60.48 60.48 0 004.7 5.184 4.99 4.99 0 001.041 1.065c.483.162.99.241 1.5.234 1.873.2 3.746.406 5.621.584a2.514 2.514 0 012.359 1.315 2.3 2.3 0 01-1.389 3.27 11 11 0 01-3.76-.049c-1.386-.086-2.783-.146-4.163-.31-3.209-.38-5.564-3.405-7.365-5.825-.666-.9-2.189-.022-1.514.885m5.838-21.729a5.244 5.244 0 11-6.743-2.889 5.334 5.334 0 016.832 3.1c.438 1.036 1.949.143 1.514-.885a7.045 7.045 0 00-13.077.43c-2.092 6.073 4.9 11.6 10.33 8.176a7.079 7.079 0 002.834-8.402c-.38-1.053-2.075-.6-1.691.466M54.75 39.955l-.158-9.294a.876.876 0 00-1.753 0l.158 9.294a.877.877 0 001.753 0z"/><path d="M56.79 25.833c-1.623 2.181-3.732 4.943-6.494 5.673-2.251.595-4.832.446-7.146.6-1.208.08-2.5-.042-3.1-1.29a2.42 2.42 0 011.569-3.3 49.9 49.9 0 015.247-.535c.962-.1 2.307.006 3.058-.666a59.213 59.213 0 004.3-4.688c1.862-2.075 3.562-5.562 6.908-4.785a5.723 5.723 0 014.393 4.968 31.7 31.7 0 01.06 3.874c.014 1.544.045 3.087.076 4.631.059 2.941.144 5.885.1 8.826a.877.877 0 001.753 0c.043-3.127-.052-6.256-.114-9.382a305.619 305.619 0 01-.07-4.883c.08-1.398 0-2.801-.237-4.182a7.4 7.4 0 00-5.182-5.46c-3.557-1.01-6 1.37-7.956 4.018a70.739 70.739 0 01-5.426 5.987l.62-.257c-1.77.193-3.542.38-5.314.563-2.266.231-4.494.325-5.454 2.8a4.101 4.101 0 003.66 5.545 31.173 31.173 0 004.075-.222c1.329-.085 2.683-.13 4-.34 3.561-.57 6.17-3.9 8.187-6.61.674-.906-.847-1.78-1.514-.885M50.778 4.518c-2.14 5.927 4.226 11.623 9.858 8.622 5.632-3 4.343-11.825-1.964-13.017a7.06 7.06 0 00-7.806 4.185c-.435 1.027 1.075 1.922 1.514.885a5.341 5.341 0 016.624-3.176 5.29 5.29 0 013.2 6.857 5.244 5.244 0 11-9.74-3.89c.384-1.063-1.31-1.521-1.691-.466"/></g></g><defs><clipPath id="clip0_686_31"><path fill="#fff" d="M0 0h67.526v47.542H0z"/></clipPath></defs></svg>