<svg xmlns="http://www.w3.org/2000/svg" width="67.526" height="47.542"><defs><clipPath id="a"><path data-name="長方形 342" fill="#fff" d="M0 0h67.526v47.542H0z"/></clipPath></defs><g data-name="グループ 280"><g data-name="グループ 276" clip-path="url(#a)" fill="#fff"><path data-name="パス 394" d="M58.322 41.009l2.365 5.89.845-1.11H5.994l.846 1.11 2.364-5.89c.42-1.047-1.275-1.5-1.691-.466l-2.365 5.89a.883.883 0 00.845 1.11h55.539a.882.882 0 00.845-1.11l-2.364-5.89c-.415-1.034-2.112-.583-1.691.466"/><path data-name="パス 395" d="M50.83 17.67l-2.742-6.829a.913.913 0 00-.845-.644h-26.96a.91.91 0 00-.846.644l-2.741 6.829c-.42 1.047 1.275 1.5 1.691.466l2.742-6.829-.845.644h26.962l-.846-.644 2.742 6.829c.415 1.034 2.112.583 1.691-.466"/><path data-name="パス 396" d="M14.529 39.955l.158-9.294a.877.877 0 00-1.753 0l-.158 9.294a.877.877 0 001.753 0"/><path data-name="パス 397" d="M9.223 26.719c1.82 2.447 3.963 5.145 6.9 6.266a13.7 13.7 0 003.915.592c1.444.1 2.89.185 4.335.281 2.651.177 5.354-1.419 5.037-4.414a4.318 4.318 0 00-1.878-3.123 6.119 6.119 0 00-2.9-.683 626.89 626.89 0 01-6.264-.658l.632.255q-2.3-2.465-4.562-4.974c-2.122-2.37-3.989-5.738-7.729-5.257a7.389 7.389 0 00-5.964 4.68C-.264 22.309.2 25.535.153 28.292c-.064 3.615-.192 7.232-.142 10.843a.877.877 0 001.753 0c-.071-5.206.227-10.41.183-15.616-.021-2.437.612-4.844 2.9-6.1 3.252-1.78 5.493.4 7.343 2.941a60.464 60.464 0 004.7 5.184 4.988 4.988 0 001.041 1.065 4.529 4.529 0 001.5.234c1.873.2 3.746.406 5.621.584a2.514 2.514 0 012.359 1.315 2.3 2.3 0 01-1.389 3.27 11 11 0 01-3.76-.049c-1.386-.086-2.783-.146-4.163-.31-3.209-.38-5.564-3.405-7.365-5.825-.666-.9-2.189-.022-1.514.885"/><path data-name="パス 398" d="M15.058 4.984a5.244 5.244 0 11-6.743-2.889 5.334 5.334 0 016.832 3.1c.438 1.036 1.949.143 1.514-.885a7.045 7.045 0 00-13.077.43c-2.092 6.073 4.9 11.6 10.33 8.176a7.079 7.079 0 002.834-8.402c-.38-1.053-2.075-.6-1.691.466"/><path data-name="パス 399" d="M54.75 39.955l-.158-9.294a.877.877 0 00-1.753 0l.158 9.294a.877.877 0 001.753 0"/><path data-name="パス 400" d="M56.79 25.834c-1.623 2.181-3.732 4.943-6.494 5.673-2.251.595-4.832.446-7.146.6-1.208.079-2.5-.042-3.1-1.29a2.421 2.421 0 011.569-3.3 49.9 49.9 0 015.247-.535c.962-.1 2.307.006 3.058-.666a59.246 59.246 0 004.3-4.688c1.862-2.075 3.562-5.562 6.908-4.785a5.723 5.723 0 014.393 4.968 31.758 31.758 0 01.06 3.874c.014 1.544.045 3.087.076 4.631.059 2.941.144 5.885.1 8.826a.877.877 0 001.753 0c.043-3.127-.052-6.256-.114-9.382a305.619 305.619 0 01-.07-4.883 18.445 18.445 0 00-.237-4.182 7.4 7.4 0 00-5.182-5.461c-3.557-1.01-6 1.37-7.956 4.019a70.753 70.753 0 01-5.426 5.987l.62-.257q-2.656.289-5.314.563c-2.266.231-4.494.325-5.454 2.8a4.1 4.1 0 003.66 5.545 31.211 31.211 0 004.075-.222c1.329-.085 2.683-.131 4-.341 3.561-.569 6.17-3.9 8.187-6.609.674-.906-.847-1.781-1.514-.885"/><path data-name="パス 401" d="M50.778 4.518c-2.14 5.928 4.226 11.624 9.858 8.623S64.979 1.315 58.672.123a7.061 7.061 0 00-7.806 4.185c-.435 1.027 1.075 1.922 1.514.885a5.341 5.341 0 016.624-3.176 5.29 5.29 0 013.2 6.857 5.244 5.244 0 11-9.74-3.89c.384-1.063-1.31-1.521-1.691-.466"/></g></g></svg>