<svg xmlns="http://www.w3.org/2000/svg" width="67" height="65"><defs><clipPath id="a"><path data-name="長方形 340" fill="none" stroke="#13b979" stroke-width="2" d="M-.326-.5h67v65h-67z"/></clipPath></defs><g data-name="グループ 270"><g data-name="グループ 269" transform="translate(.326 .5)" clip-path="url(#a)" fill="none" stroke="#13b979" stroke-linecap="round" stroke-linejoin="round" stroke-width="2"><path data-name="パス 381" d="M11.845 8.509h0a2.154 2.154 0 002.154-2.154V3.126a2.154 2.154 0 10-4.307 0v1.076a8.614 8.614 0 00-8.615 8.614v12.921c0 11.845 12.921 16.152 18.3 16.152"/><path data-name="パス 382" d="M19.382 41.888v2.692a18.843 18.843 0 1037.686 0V32.197"/><path data-name="パス 383" d="M26.919 8.509h0a2.154 2.154 0 01-2.154-2.154V3.126a2.154 2.154 0 114.307 0v1.076c4.738-1.378 8.614 1.531 8.614 6.466v15.069c0 11.844-12.921 16.151-18.3 16.151"/><ellipse data-name="楕円形 28" cx="8.5" cy="8" rx="8.5" ry="8" transform="translate(48.674 15.5)"/><path data-name="パス 384" d="M60.299 23.583a3.23 3.23 0 11-3.23-3.23"/></g></g></svg>