<svg id="グループ_286" data-name="グループ 286" xmlns="http://www.w3.org/2000/svg" xmlns:xlink="http://www.w3.org/1999/xlink" width="53.708" height="68.746" viewBox="0 0 53.708 68.746">
  <defs>
    <clipPath id="clip-path">
      <rect id="長方形_344" data-name="長方形 344" width="53.708" height="68.746" fill="none" stroke="#232e83" stroke-width="3"/>
    </clipPath>
  </defs>
  <g id="グループ_285" data-name="グループ 285" clip-path="url(#clip-path)">
    <path id="パス_412" data-name="パス 412" d="M45.58,72.384V63.778a1.068,1.068,0,0,1,1.068-1.068h8.606a1.068,1.068,0,0,1,1.068,1.068v8.606a1.068,1.068,0,0,0,1.067,1.068H66a1.067,1.067,0,0,1,1.067,1.068v8.606A1.067,1.067,0,0,1,66,84.193H57.389a1.068,1.068,0,0,0-1.067,1.068v8.606a1.068,1.068,0,0,1-1.068,1.068H46.647a1.068,1.068,0,0,1-1.068-1.068V85.261a1.068,1.068,0,0,0-1.068-1.068H35.906a1.068,1.068,0,0,1-1.068-1.067V74.519a1.068,1.068,0,0,1,1.068-1.068h8.606A1.068,1.068,0,0,0,45.58,72.384Z" transform="translate(-24.097 -43.375)" fill="none" stroke="#232e83" stroke-linecap="round" stroke-linejoin="round" stroke-width="3"/>
    <path id="パス_413" data-name="パス 413" d="M30.56,3.934c7.432,5.876,17.934,8.878,22.672,9.6a2.154,2.154,0,0,1,1.811,2.144V46.286c0,15.1-21.195,22.456-25.149,23.7a2.085,2.085,0,0,1-1.262,0c-3.954-1.242-25.149-8.6-25.149-23.7V15.679A2.153,2.153,0,0,1,5.3,13.536c4.738-.723,15.241-3.725,22.672-9.6A2.09,2.09,0,0,1,30.56,3.934Z" transform="translate(-2.41 -2.41)" fill="none" stroke="#232e83" stroke-linecap="round" stroke-linejoin="round" stroke-width="3"/>
  </g>
</svg>
