<svg xmlns="http://www.w3.org/2000/svg" xmlns:xlink="http://www.w3.org/1999/xlink" width="71" height="67" viewBox="0 0 71 67">
  <defs>
    <clipPath id="clip-path">
      <rect id="長方形_341" data-name="長方形 341" width="71" height="67" transform="translate(0 0)" fill="none" stroke="#ff649f" stroke-width="2"/>
    </clipPath>
  </defs>
  <g id="グループ_272" data-name="グループ 272" transform="translate(0 0)">
    <g id="グループ_271" data-name="グループ 271" transform="translate(0 0)" clip-path="url(#clip-path)">
      <path id="パス_385" data-name="パス 385" d="M19.718,144.2,6.4,132.246a1.164,1.164,0,0,1-.138-1.591l3.239-4.092a2.239,2.239,0,0,1,1.787-.865,11.684,11.684,0,0,1,6.835,2.363c9.129,6.916,7.988,12.68,7.988,12.68H70.563" transform="translate(-4.86 -101.55)" fill="none" stroke="#ff649f" stroke-linecap="round" stroke-linejoin="round" stroke-width="2"/>
      <path id="パス_386" data-name="パス 386" d="M176.955,234v1.153a1.146,1.146,0,0,1-1.141,1.153H132" transform="translate(-106.641 -189.045)" fill="none" stroke="#ff649f" stroke-linecap="round" stroke-linejoin="round" stroke-width="2"/>
      <line id="線_5" data-name="線 5" x1="29" transform="translate(1 48)" fill="none" stroke="#ff649f" stroke-linecap="round" stroke-linejoin="round" stroke-width="2"/>
      <path id="パス_387" data-name="パス 387" d="M63.12,103.153a2.005,2.005,0,0,0,.127-.207,5.178,5.178,0,0,0-.772-6.34l-2.444-2.444a5.176,5.176,0,0,0-7.331,0,5.646,5.646,0,0,0-.68.83" transform="translate(-42.026 -74.842)" fill="none" stroke="#ff649f" stroke-linecap="round" stroke-linejoin="round" stroke-width="2"/>
      <path id="パス_388" data-name="パス 388" d="M129.788,153.631a4.611,4.611,0,0,0-3.043-1.153H115.218l-3.3-3.112L109.8,147.36" transform="translate(-88.706 -119.05)" fill="none" stroke="#ff649f" stroke-linecap="round" stroke-linejoin="round" stroke-width="2"/>
      <path id="パス_389" data-name="パス 389" d="M147.54,150h32.748a4.61,4.61,0,0,1,4.611,4.611" transform="translate(-119.195 -121.183)" fill="none" stroke="#ff649f" stroke-linecap="round" stroke-linejoin="round" stroke-width="2"/>
      <line id="線_6" data-name="線 6" y2="19" transform="translate(70 26)" fill="none" stroke="#ff649f" stroke-linecap="round" stroke-linejoin="round" stroke-width="2"/>
      <ellipse id="楕円形_29" data-name="楕円形 29" cx="4.5" cy="5" rx="4.5" ry="5" transform="translate(6 56)" fill="none" stroke="#ff649f" stroke-linecap="round" stroke-linejoin="round" stroke-width="2"/>
      <line id="線_7" data-name="線 7" y1="8" transform="translate(11 48)" fill="none" stroke="#ff649f" stroke-linecap="round" stroke-linejoin="round" stroke-width="2"/>
      <circle id="楕円形_30" data-name="楕円形 30" cx="5" cy="5" r="5" transform="translate(56 56)" fill="none" stroke="#ff649f" stroke-linecap="round" stroke-linejoin="round" stroke-width="2"/>
      <line id="線_8" data-name="線 8" y1="8" transform="translate(61 48)" fill="none" stroke="#ff649f" stroke-linecap="round" stroke-linejoin="round" stroke-width="2"/>
      <line id="線_9" data-name="線 9" x2="41" transform="translate(15 53)" fill="none" stroke="#ff649f" stroke-linecap="round" stroke-linejoin="round" stroke-width="2"/>
      <line id="線_10" data-name="線 10" y2="24" transform="translate(46 1)" fill="none" stroke="#ff649f" stroke-linecap="round" stroke-linejoin="round" stroke-width="2"/>
      <path id="パス_390" data-name="パス 390" d="M168,6a3.458,3.458,0,0,0,6.916,0h13.832a3.458,3.458,0,1,0,6.916,0" transform="translate(-135.725 -4.847)" fill="none" stroke="#ff649f" stroke-linecap="round" stroke-linejoin="round" stroke-width="2"/>
      <path id="パス_391" data-name="パス 391" d="M166.611,59.527h0A4.611,4.611,0,0,1,162,54.916V50.305A2.305,2.305,0,0,1,164.305,48h4.611a2.305,2.305,0,0,1,2.305,2.305v4.611A4.611,4.611,0,0,1,166.611,59.527Z" transform="translate(-130.877 -38.778)" fill="none" stroke="#ff649f" stroke-linecap="round" stroke-linejoin="round" stroke-width="2"/>
      <line id="線_11" data-name="線 11" y2="5" transform="translate(36 4)" fill="none" stroke="#ff649f" stroke-linecap="round" stroke-linejoin="round" stroke-width="2"/>
      <line id="線_12" data-name="線 12" y2="4" transform="translate(36 21)" fill="none" stroke="#ff649f" stroke-linecap="round" stroke-linejoin="round" stroke-width="2"/>
    </g>
  </g>
</svg>
