<svg xmlns="http://www.w3.org/2000/svg" width="68.182" height="57.669" viewBox="0 0 68.182 57.669">
  <g id="グループ_287" data-name="グループ 287" transform="translate(0.682 0.682)">
    <g id="グループ_275" data-name="グループ 275" transform="translate(0.818 0.818)">
      <path id="パス_392" data-name="パス 392" d="M9.837,37.54c8.61,14.687,28.754,23.129,28.754,23.129S71.182,47,71.182,24.219A18.1,18.1,0,0,0,53.2,6a17.873,17.873,0,0,0-14.613,7.633A17.873,17.873,0,0,0,23.978,6,18.1,18.1,0,0,0,6,24.219a23.646,23.646,0,0,0,.515,4.91" transform="translate(-6 -6)" fill="none" stroke="#232e83" stroke-linecap="round" stroke-linejoin="round" stroke-width="3"/>
      <path id="パス_393" data-name="パス 393" d="M6,97.584H21.048a1.051,1.051,0,0,1,.981.674l3.712,9.651a1.051,1.051,0,0,0,2.011-.165l4.76-23.007a1.051,1.051,0,0,1,2.033-.1L38.36,96.846a1.052,1.052,0,0,0,1,.738H51.207" transform="translate(-6 -70.25)" fill="none" stroke="#232e83" stroke-linecap="round" stroke-linejoin="round" stroke-width="3"/>
    </g>
  </g>
</svg>
