<svg xmlns="http://www.w3.org/2000/svg" width="52.73" height="44.547" viewBox="0 0 52.73 44.547">
  <g id="グループ_274" data-name="グループ 274" transform="translate(0.182 0.182)">
    <g id="グループ_275" data-name="グループ 275" transform="translate(0 0)">
      <path id="パス_392" data-name="パス 392" d="M8.986,30.547c6.7,11.431,22.378,18,22.378,18S56.73,37.911,56.73,20.18A14.084,14.084,0,0,0,42.738,6a13.91,13.91,0,0,0-11.373,5.94A13.91,13.91,0,0,0,19.992,6,14.084,14.084,0,0,0,6,20.18,18.4,18.4,0,0,0,6.4,24" transform="translate(-5.182 -5.182)" fill="none" stroke="#fff" stroke-linecap="round" stroke-linejoin="round" stroke-width="2"/>
      <path id="パス_393" data-name="パス 393" d="M6,94.55H17.711a.818.818,0,0,1,.764.524l2.889,7.512a.818.818,0,0,0,1.565-.128l3.7-17.906a.818.818,0,0,1,1.582-.078l2.969,9.5a.818.818,0,0,0,.781.574h9.217" transform="translate(-5.182 -72.458)" fill="none" stroke="#fff" stroke-linecap="round" stroke-linejoin="round" stroke-width="2"/>
    </g>
  </g>
</svg>
