<svg id="グループ_279" data-name="グループ 279" xmlns="http://www.w3.org/2000/svg" xmlns:xlink="http://www.w3.org/1999/xlink" width="80.181" height="35.398" viewBox="0 0 80.181 35.398">
  <defs>
    <clipPath id="clip-path">
      <rect id="長方形_343" data-name="長方形 343" width="80.181" height="35.398" fill="#ffa934"/>
    </clipPath>
  </defs>
  <g id="グループ_278" data-name="グループ 278" transform="translate(0 0)" clip-path="url(#clip-path)">
    <path id="パス_402" data-name="パス 402" d="M2.508,65.8c0-1.817-.4-4.323.55-5.956,1.093-1.875,4.317-1.962,6.287-2.388a18.837,18.837,0,0,1,8.125-.168c1.827.387,5.139.567,6.527,1.832,1.172,1.069,2.923-.673,1.746-1.746-1.963-1.789-5.19-1.953-7.724-2.49a22.328,22.328,0,0,0-9.634.257c-2.61.564-5.581.654-7.215,3.075C-.327,60.426.039,63.26.039,65.8a1.235,1.235,0,0,0,2.469,0" transform="translate(0 -35.788)" fill="#ffa934"/>
    <path id="パス_403" data-name="パス 403" d="M16.148,8.258a8.258,8.258,0,0,0,16.516,0,8.258,8.258,0,0,0-16.516,0c-.053,1.589,2.416,1.587,2.469,0a5.789,5.789,0,1,1,11.578,0,5.789,5.789,0,0,1-11.578,0c-.053-1.585-2.523-1.592-2.469,0" transform="translate(-10.61 0)" fill="#ffa934"/>
    <path id="パス_404" data-name="パス 404" d="M183.7,65.8c0-2.536.366-5.369-1.129-7.585-1.633-2.42-4.606-2.51-7.215-3.075a22.325,22.325,0,0,0-9.635-.257c-2.532.536-5.763.7-7.724,2.49-1.177,1.073.573,2.815,1.746,1.746,1.374-1.253,4.613-1.421,6.419-1.808a18.972,18.972,0,0,1,8.232.145c1.864.4,5.054.511,6.166,2.2,1.092,1.656.671,4.255.671,6.148a1.235,1.235,0,0,0,2.469,0" transform="translate(-103.563 -35.787)" fill="#ffa934"/>
    <path id="パス_405" data-name="パス 405" d="M183.55,8.258a5.789,5.789,0,1,1-11.578,0,5.789,5.789,0,0,1,11.578,0c.053,1.585,2.523,1.592,2.469,0a8.258,8.258,0,0,0-16.516,0,8.258,8.258,0,0,0,16.516,0c.053-1.589-2.416-1.587-2.469,0" transform="translate(-111.377 0)" fill="#ffa934"/>
    <path id="パス_406" data-name="パス 406" d="M79.21,78.045c0-2.818-.642-6.834,2.971-7.535,2.734-.531,5.516-1.416,8.317-1.416s5.414.974,8.152,1.394c3.767.578,3.136,4.682,3.136,7.557a1.235,1.235,0,0,0,2.469,0c0-2.534.364-5.372-1.129-7.585-1.649-2.446-4.731-2.537-7.372-3.108a22.23,22.23,0,0,0-9.585-.2c-2.287.485-5.594.63-7.373,2.242-2.472,2.241-2.054,5.642-2.054,8.651a1.235,1.235,0,0,0,2.469,0" transform="translate(-50.407 -43.839)" fill="#ffa934"/>
    <path id="パス_407" data-name="パス 407" d="M92.824,20.5a8.258,8.258,0,1,0,8.258-8.258A8.371,8.371,0,0,0,92.824,20.5c-.053,1.589,2.416,1.587,2.469,0a5.789,5.789,0,1,1,6.03,5.781,5.862,5.862,0,0,1-6.03-5.781c-.053-1.585-2.523-1.592-2.469,0" transform="translate(-60.992 -8.043)" fill="#ffa934"/>
  </g>
</svg>
