<svg xmlns="http://www.w3.org/2000/svg" xmlns:xlink="http://www.w3.org/1999/xlink" width="56" height="75" viewBox="0 0 56 75">
  <defs>
    <clipPath id="clip-path">
      <rect id="長方形_338" data-name="長方形 338" width="56" height="75" transform="translate(-0.318)" fill="none" stroke="#f7fffd" stroke-width="1.5"/>
    </clipPath>
  </defs>
  <g id="グループ_268" data-name="グループ 268" transform="translate(-0.025 0.159)">
    <path id="パス_370" data-name="パス 370" d="M78,303.62l1.738,1.738,3.476-3.476" transform="translate(-63.002 -243.341)" fill="none" stroke="#f7fffd" stroke-linecap="round" stroke-linejoin="round" stroke-width="1.5"/>
    <path id="パス_372" data-name="パス 372" d="M78,225.62l1.738,1.738,3.476-3.476" transform="translate(-63.002 -180.401)" fill="none" stroke="#f7fffd" stroke-linecap="round" stroke-linejoin="round" stroke-width="1.5"/>
    <g id="グループ_553" data-name="グループ 553">
      <path id="パス_371" data-name="パス 371" d="M64.449,289.882H60v9.268h9.268v-.973" transform="translate(-48.478 -233.658)" fill="none" stroke="#f7fffd" stroke-linecap="round" stroke-linejoin="round" stroke-width="1.5"/>
      <line id="線_1" data-name="線 1" x2="17.378" transform="translate(26.583 57.383)" fill="none" stroke="#f7fffd" stroke-linecap="round" stroke-linejoin="round" stroke-width="1.5"/>
      <line id="線_2" data-name="線 2" x2="11.585" transform="translate(26.583 63.175)" fill="none" stroke="#f7fffd" stroke-linecap="round" stroke-linejoin="round" stroke-width="1.5"/>
      <path id="パス_373" data-name="パス 373" d="M64.449,211.882H60v9.268h9.268v-.973" transform="translate(-48.478 -170.719)" fill="none" stroke="#f7fffd" stroke-linecap="round" stroke-linejoin="round" stroke-width="1.5"/>
      <line id="線_3" data-name="線 3" x2="17.378" transform="translate(26.583 42.322)" fill="none" stroke="#f7fffd" stroke-linecap="round" stroke-linejoin="round" stroke-width="1.5"/>
      <line id="線_4" data-name="線 4" x2="11.585" transform="translate(26.583 48.115)" fill="none" stroke="#f7fffd" stroke-linecap="round" stroke-linejoin="round" stroke-width="1.5"/>
    </g>
    <g id="グループ_264" data-name="グループ 264" transform="translate(0.343 -0.159)">
      <g id="グループ_263" data-name="グループ 263" transform="translate(0)" clip-path="url(#clip-path)">
        <path id="パス_374" data-name="パス 374" d="M60.774,101.961h10.7a.747.747,0,0,1,.7.479l2.639,6.862a.747.747,0,0,0,1.429-.117l3.384-16.357a.747.747,0,0,1,1.445-.071l2.712,8.68a.747.747,0,0,0,.713.524h8.42" transform="translate(-49.446 -74.013)" fill="none" stroke="#f7fffd" stroke-linecap="round" stroke-linejoin="round" stroke-width="1.5"/>
        <path id="パス_375" data-name="パス 375" d="M52.341,48h4.634a2.324,2.324,0,0,1,2.317,2.317V109.4a2.324,2.324,0,0,1-2.317,2.317H8.317A2.324,2.324,0,0,1,6,109.4V50.317A2.324,2.324,0,0,1,8.317,48h4.634" transform="translate(-5.248 -38.321)" fill="none" stroke="#f7fffd" stroke-linecap="round" stroke-linejoin="round" stroke-width="1.5"/>
        <path id="パス_376" data-name="パス 376" d="M93.8,10.634H88.012V8.317A2.317,2.317,0,0,0,85.695,6H76.427A2.317,2.317,0,0,0,74.11,8.317v2.317H68.317A2.317,2.317,0,0,0,66,12.951v2.317a1.158,1.158,0,0,0,1.159,1.159h27.8a1.158,1.158,0,0,0,1.159-1.159V12.951A2.317,2.317,0,0,0,93.8,10.634Z" transform="translate(-53.663 -4.431)" fill="none" stroke="#f7fffd" stroke-linecap="round" stroke-linejoin="round" stroke-width="1.5"/>
      </g>
    </g>
  </g>
</svg>
