<svg xmlns="http://www.w3.org/2000/svg" width="21.882" height="21.353" viewBox="0 0 21.882 21.353">
  <path id="Icon_awesome-arrow-right" data-name="Icon awesome-arrow-right" d="M8.878,4.01,9.913,2.976a1.114,1.114,0,0,1,1.58,0l9.06,9.055a1.114,1.114,0,0,1,0,1.58l-9.06,9.06a1.114,1.114,0,0,1-1.58,0L8.878,21.637a1.12,1.12,0,0,1,.019-1.6l5.616-5.35H1.119A1.116,1.116,0,0,1,0,13.569V12.078a1.116,1.116,0,0,1,1.119-1.119H14.513L8.9,5.609A1.112,1.112,0,0,1,8.878,4.01Z" transform="translate(0.5 -2.147)" fill="#232e83" stroke="#fff" stroke-width="1"/>
</svg>
