<svg width="68" height="48" viewBox="0 0 68 48" fill="none" xmlns="http://www.w3.org/2000/svg">
<g clip-path="url(#clip0_686_31)">
<mask id="mask0_686_31" style="mask-type:luminance" maskUnits="userSpaceOnUse" x="0" y="0" width="68" height="48">
<path d="M67.526 0H0V47.542H67.526V0Z" fill="white"/>
</mask>
<g mask="url(#mask0_686_31)">
<path d="M58.322 41.0089L60.687 46.8989L61.532 45.7889H5.99403L6.84003 46.8989L9.20403 41.0089C9.62403 39.9619 7.92903 39.5089 7.51303 40.5429L5.14803 46.4329C5.11342 46.563 5.10901 46.6992 5.13514 46.8313C5.16126 46.9633 5.21723 47.0877 5.29876 47.1948C5.3803 47.3019 5.48524 47.3889 5.60557 47.4492C5.7259 47.5096 5.85843 47.5416 5.99303 47.5429H61.532C61.6667 47.5418 61.7993 47.5099 61.9198 47.4496C62.0402 47.3894 62.1452 47.3023 62.2268 47.1951C62.3084 47.088 62.3643 46.9636 62.3904 46.8314C62.4164 46.6993 62.4119 46.563 62.377 46.4329L60.013 40.5429C59.598 39.5089 57.901 39.9599 58.322 41.0089Z" fill="#1346B9"/>
<path d="M50.83 17.6693L48.088 10.8403C48.0319 10.6582 47.9203 10.4982 47.7688 10.3827C47.6173 10.2672 47.4334 10.202 47.243 10.1963H20.283C20.0923 10.2014 19.908 10.2663 19.7562 10.3819C19.6043 10.4975 19.4927 10.6578 19.437 10.8403L16.696 17.6693C16.276 18.7163 17.971 19.1693 18.387 18.1353L21.129 11.3063L20.284 11.9503H47.246L46.4 11.3063L49.142 18.1353C49.557 19.1693 51.254 18.7183 50.833 17.6693" fill="#1346B9"/>
<path d="M14.529 39.9549C14.5817 36.8569 14.6343 33.7589 14.687 30.6609C14.6793 30.4335 14.5836 30.2181 14.4201 30.06C14.2565 29.9019 14.038 29.8135 13.8105 29.8135C13.583 29.8135 13.3645 29.9019 13.2009 30.06C13.0374 30.2181 12.9417 30.4335 12.934 30.6609C12.8813 33.7589 12.8287 36.8569 12.776 39.9549C12.7837 40.1822 12.8794 40.3977 13.0429 40.5558C13.2065 40.7139 13.425 40.8023 13.6525 40.8023C13.88 40.8023 14.0985 40.7139 14.2621 40.5558C14.4256 40.3977 14.5213 40.1822 14.529 39.9549Z" fill="#1346B9"/>
<path d="M9.22302 26.7184C11.043 29.1654 13.186 31.8634 16.123 32.9844C17.3925 33.3702 18.7112 33.5697 20.038 33.5764C21.482 33.6764 22.928 33.7614 24.373 33.8574C27.024 34.0344 29.727 32.4384 29.41 29.4434C29.3436 28.8174 29.141 28.2135 28.8166 27.674C28.4922 27.1346 28.0538 26.6726 27.532 26.3204C26.6364 25.8573 25.6402 25.6226 24.632 25.6374C22.543 25.4314 20.455 25.2064 18.368 24.9794L19 25.2344C17.4667 23.591 15.946 21.933 14.438 20.2604C12.316 17.8904 10.449 14.5224 6.70902 15.0034C5.3849 15.172 4.13119 15.6962 3.08108 16.5202C2.03098 17.3442 1.2237 18.4373 0.745019 19.6834C-0.263981 22.3084 0.200019 25.5344 0.153019 28.2914C0.0890188 31.9064 -0.0389812 35.5234 0.0110188 39.1344C0.0186988 39.3617 0.114408 39.5772 0.277945 39.7353C0.441482 39.8934 0.660051 39.9818 0.887519 39.9818C1.11499 39.9818 1.33356 39.8934 1.49709 39.7353C1.66063 39.5772 1.75634 39.3617 1.76402 39.1344C1.69302 33.9284 1.99102 28.7244 1.94702 23.5184C1.92602 21.0814 2.55902 18.6744 4.84702 17.4184C8.09902 15.6384 10.34 17.8184 12.19 20.3594C13.6553 22.1766 15.2246 23.9076 16.89 25.5434C17.1818 25.9485 17.5327 26.3075 17.931 26.6084C18.4143 26.7702 18.9214 26.8493 19.431 26.8424C21.304 27.0424 23.177 27.2484 25.052 27.4264C25.5296 27.3984 26.0052 27.5073 26.4231 27.7402C26.841 27.9731 27.1837 28.3204 27.411 28.7414C27.5681 29.0425 27.6566 29.3748 27.67 29.7142C27.6835 30.0536 27.6216 30.3918 27.4888 30.7044C27.356 31.017 27.1556 31.2964 26.902 31.5224C26.6484 31.7483 26.3478 31.9153 26.022 32.0114C24.7752 32.211 23.5032 32.1944 22.262 31.9624C20.876 31.8764 19.479 31.8164 18.099 31.6524C14.89 31.2724 12.535 28.2474 10.734 25.8274C10.068 24.9274 8.54502 25.8054 9.22002 26.7124" fill="#1346B9"/>
<path d="M15.058 4.98305C15.4555 5.94624 15.557 7.006 15.3497 8.02713C15.1423 9.04826 14.6354 9.98447 13.8937 10.7163C13.152 11.4481 12.2091 11.9424 11.1853 12.1361C10.1614 12.3298 9.10314 12.214 8.14537 11.8037C7.1876 11.3933 6.37379 10.707 5.80776 9.83213C5.24174 8.9573 4.94916 7.93368 4.96737 6.89186C4.98557 5.85005 5.31373 4.83727 5.90997 3.98275C6.50621 3.12822 7.3435 2.4707 8.31502 2.09405C9.63257 1.60711 11.089 1.65953 12.3681 2.23993C13.6473 2.82034 14.6458 3.88186 15.147 5.19405C15.585 6.23005 17.096 5.33705 16.661 4.30905C16.0957 3.01906 15.1567 1.92813 13.9653 1.17707C12.7738 0.426015 11.3846 0.0493167 9.97691 0.0956038C8.56924 0.141891 7.20777 0.609038 6.06822 1.43674C4.92868 2.26445 4.06338 3.41471 3.58402 4.73905C1.49202 10.8121 8.48402 16.3391 13.914 12.9151C15.2727 12.0467 16.2942 10.7406 16.8095 9.21274C17.3248 7.6849 17.3032 6.0269 16.748 4.51305C16.368 3.46005 14.673 3.91305 15.057 4.97905" fill="#1346B9"/>
<path d="M54.75 39.9549C54.6974 36.8569 54.6447 33.7589 54.592 30.6609C54.5844 30.4335 54.4887 30.2181 54.3251 30.06C54.1616 29.9019 53.943 29.8135 53.7155 29.8135C53.4881 29.8135 53.2695 29.9019 53.106 30.06C52.9424 30.2181 52.8467 30.4335 52.8391 30.6609C52.8917 33.7589 52.9444 36.8569 52.997 39.9549C53.0047 40.1822 53.1004 40.3977 53.264 40.5558C53.4275 40.7139 53.6461 40.8023 53.8736 40.8023C54.101 40.8023 54.3196 40.7139 54.4831 40.5558C54.6467 40.3977 54.7424 40.1822 54.75 39.9549Z" fill="#1346B9"/>
<path d="M56.79 25.8333C55.167 28.0143 53.058 30.7763 50.296 31.5063C48.045 32.1013 45.464 31.9523 43.15 32.1063C41.942 32.1853 40.65 32.0643 40.05 30.8163C39.9115 30.4989 39.8428 30.1554 39.8484 29.8091C39.8541 29.4627 39.9339 29.1217 40.0827 28.8089C40.2314 28.4961 40.4455 28.2188 40.7105 27.9958C40.9756 27.7729 41.2854 27.6093 41.619 27.5163C43.3574 27.2456 45.1088 27.067 46.866 26.9813C47.828 26.8813 49.173 26.9873 49.924 26.3153C51.4403 24.8308 52.8757 23.2659 54.224 21.6273C56.086 19.5523 57.786 16.0653 61.132 16.8423C62.2894 17.1118 63.3342 17.7349 64.1214 18.6252C64.9086 19.5154 65.3992 20.6286 65.525 21.8103C65.6238 23.0992 65.6439 24.393 65.585 25.6843C65.599 27.2283 65.63 28.7713 65.661 30.3153C65.72 33.2563 65.805 36.2003 65.761 39.1413C65.7687 39.3687 65.8644 39.5841 66.0279 39.7422C66.1915 39.9003 66.4101 39.9887 66.6375 39.9887C66.865 39.9887 67.0836 39.9003 67.2471 39.7422C67.4106 39.5841 67.5063 39.3687 67.514 39.1413C67.557 36.0143 67.462 32.8853 67.4 29.7593C67.368 28.1323 67.336 26.5043 67.33 24.8763C67.4101 23.4779 67.3305 22.0748 67.093 20.6943C66.7969 19.4037 66.1598 18.2162 65.2484 17.2556C64.3369 16.2951 63.1844 15.5967 61.911 15.2333C58.354 14.2233 55.911 16.6033 53.955 19.2523C52.2619 21.3497 50.4502 23.3487 48.529 25.2393L49.149 24.9823C47.3783 25.175 45.607 25.3627 43.835 25.5453C41.569 25.7763 39.341 25.8703 38.381 28.3453C38.1519 28.952 38.0699 29.6043 38.1418 30.2488C38.2137 30.8932 38.4375 31.5115 38.7947 32.0527C39.1519 32.5939 39.6324 33.0426 40.1968 33.3621C40.7611 33.6815 41.3931 33.8626 42.041 33.8903C43.4027 33.9053 44.764 33.8312 46.116 33.6683C47.445 33.5833 48.799 33.5373 50.116 33.3273C53.677 32.7583 56.286 29.4273 58.303 26.7183C58.977 25.8123 57.456 24.9373 56.789 25.8333" fill="#1346B9"/>
<path d="M50.778 4.51752C48.638 10.4455 55.004 16.1415 60.636 13.1405C66.268 10.1395 64.979 1.31452 58.672 0.122519C57.0887 -0.175104 55.4511 0.0776838 54.0313 0.838924C52.6114 1.60016 51.4945 2.82408 50.866 4.30752C50.431 5.33452 51.941 6.22952 52.38 5.19252C52.8683 3.91625 53.8271 2.87567 55.0593 2.28489C56.2914 1.6941 57.7032 1.59806 59.004 2.01652C59.6693 2.24977 60.2812 2.61364 60.8038 3.08674C61.3264 3.55984 61.7492 4.13263 62.0474 4.77145C62.3455 5.41026 62.5129 6.10222 62.5398 6.80667C62.5667 7.51111 62.4525 8.21382 62.204 8.87352C61.6882 10.1651 60.6804 11.1989 59.4023 11.7475C58.1242 12.296 56.6806 12.3144 55.389 11.7985C54.0974 11.2827 53.0636 10.2749 52.5151 8.99681C51.9665 7.71875 51.9482 6.27512 52.464 4.98352C52.848 3.92052 51.154 3.46252 50.773 4.51752" fill="#1346B9"/>
</g>
</g>
<defs>
<clipPath id="clip0_686_31">
<rect width="67.526" height="47.542" fill="white"/>
</clipPath>
</defs>
</svg>
