<svg xmlns="http://www.w3.org/2000/svg" xmlns:xlink="http://www.w3.org/1999/xlink" width="67.526" height="47.542" viewBox="0 0 67.526 47.542">
  <defs>
    <clipPath id="clip-path">
      <rect id="長方形_342" data-name="長方形 342" width="67.526" height="47.542" fill="#fff"/>
    </clipPath>
  </defs>
  <g id="グループ_280" data-name="グループ 280" transform="translate(0)">
    <g id="グループ_276" data-name="グループ 276" transform="translate(0)" clip-path="url(#clip-path)">
      <path id="パス_394" data-name="パス 394" d="M74.163,165.122l2.365,5.89.845-1.11H21.835l.846,1.11,2.364-5.89c.42-1.047-1.275-1.5-1.691-.466l-2.365,5.89a.883.883,0,0,0,.845,1.11H77.373a.882.882,0,0,0,.845-1.11l-2.364-5.89c-.415-1.034-2.112-.583-1.691.466" transform="translate(-15.841 -124.113)" fill="#fff"/>
      <path id="パス_395" data-name="パス 395" d="M102.484,49.344l-2.742-6.829a.913.913,0,0,0-.845-.644H71.937a.91.91,0,0,0-.846.644L68.35,49.344c-.42,1.047,1.275,1.5,1.691.466l2.742-6.829-.845.644H98.9l-.846-.644,2.742,6.829c.415,1.034,2.112.583,1.691-.466" transform="translate(-51.654 -31.674)" fill="#fff"/>
      <path id="パス_396" data-name="パス 396" d="M54.211,132.563q.079-4.647.158-9.294a.877.877,0,0,0-1.753,0q-.079,4.647-.158,9.294a.877.877,0,0,0,1.753,0" transform="translate(-39.682 -92.608)" fill="#fff"/>
      <path id="パス_397" data-name="パス 397" d="M9.223,73.184c1.82,2.447,3.963,5.145,6.9,6.266a13.7,13.7,0,0,0,3.915.592c1.444.1,2.89.185,4.335.281,2.651.177,5.354-1.419,5.037-4.414a4.318,4.318,0,0,0-1.878-3.123,6.119,6.119,0,0,0-2.9-.683c-2.089-.206-4.177-.431-6.264-.658L19,71.7q-2.3-2.465-4.562-4.974c-2.122-2.37-3.989-5.738-7.729-5.257A7.389,7.389,0,0,0,.745,66.149C-.264,68.774.2,72,.153,74.757.089,78.372-.039,81.989.011,85.6a.877.877,0,0,0,1.753,0c-.071-5.206.227-10.41.183-15.616-.021-2.437.612-4.844,2.9-6.1,3.252-1.78,5.493.4,7.343,2.941a60.464,60.464,0,0,0,4.7,5.184,4.988,4.988,0,0,0,1.041,1.065,4.529,4.529,0,0,0,1.5.234c1.873.2,3.746.406,5.621.584a2.514,2.514,0,0,1,2.359,1.315,2.3,2.3,0,0,1-1.389,3.27,11,11,0,0,1-3.76-.049c-1.386-.086-2.783-.146-4.163-.31-3.209-.38-5.564-3.405-7.365-5.825-.666-.9-2.189-.022-1.514.885" transform="translate(0 -46.465)" fill="#fff"/>
      <path id="パス_398" data-name="パス 398" d="M25.01,5.27a5.244,5.244,0,1,1-6.743-2.889,5.334,5.334,0,0,1,6.832,3.1c.438,1.036,1.949.143,1.514-.885a7.045,7.045,0,0,0-13.077.43c-2.092,6.073,4.9,11.6,10.33,8.176A7.079,7.079,0,0,0,26.7,4.8c-.38-1.053-2.075-.6-1.691.466" transform="translate(-9.952 -0.286)" fill="#fff"/>
      <path id="パス_399" data-name="パス 399" d="M218.877,132.563q-.079-4.647-.158-9.294a.877.877,0,0,0-1.753,0q.079,4.647.158,9.294a.877.877,0,0,0,1.753,0" transform="translate(-164.127 -92.608)" fill="#fff"/>
      <path id="パス_400" data-name="パス 400" d="M175.138,72.407c-1.623,2.181-3.732,4.943-6.494,5.673-2.251.595-4.832.446-7.146.6-1.208.079-2.5-.042-3.1-1.29a2.421,2.421,0,0,1,1.569-3.3,49.9,49.9,0,0,1,5.247-.535c.962-.1,2.307.006,3.058-.666a59.246,59.246,0,0,0,4.3-4.688c1.862-2.075,3.562-5.562,6.908-4.785a5.723,5.723,0,0,1,4.393,4.968,31.758,31.758,0,0,1,.06,3.874c.014,1.544.045,3.087.076,4.631.059,2.941.144,5.885.1,8.826a.877.877,0,0,0,1.753,0c.043-3.127-.052-6.256-.114-9.382-.032-1.627-.064-3.255-.07-4.883a18.445,18.445,0,0,0-.237-4.182,7.4,7.4,0,0,0-5.182-5.461c-3.557-1.01-6,1.37-7.956,4.019a70.753,70.753,0,0,1-5.426,5.987l.62-.257q-2.656.289-5.314.563c-2.266.231-4.494.325-5.454,2.8a4.1,4.1,0,0,0,3.66,5.545,31.211,31.211,0,0,0,4.075-.222c1.329-.085,2.683-.131,4-.341,3.561-.569,6.17-3.9,8.187-6.609.674-.906-.847-1.781-1.514-.885" transform="translate(-118.348 -46.573)" fill="#fff"/>
      <path id="パス_401" data-name="パス 401" d="M207.184,4.519c-2.14,5.928,4.226,11.624,9.858,8.623S221.385,1.316,215.078.124a7.061,7.061,0,0,0-7.806,4.185c-.435,1.027,1.075,1.922,1.514.885a5.341,5.341,0,0,1,6.624-3.176,5.29,5.29,0,0,1,3.2,6.857,5.244,5.244,0,1,1-9.74-3.89c.384-1.063-1.31-1.521-1.691-.466" transform="translate(-156.406 -0.001)" fill="#fff"/>
    </g>
  </g>
</svg>
