<svg xmlns="http://www.w3.org/2000/svg" xmlns:xlink="http://www.w3.org/1999/xlink" width="67" height="65" viewBox="0 0 67 65">
  <defs>
    <clipPath id="clip-path">
      <rect id="長方形_340" data-name="長方形 340" width="67" height="65" transform="translate(-0.326 -0.5)" fill="none" stroke="#fff" stroke-width="2"/>
    </clipPath>
  </defs>
  <g id="グループ_270" data-name="グループ 270" transform="translate(0.326 0.355)">
    <g id="グループ_269" data-name="グループ 269" transform="translate(0 0.145)" clip-path="url(#clip-path)">
      <path id="パス_381" data-name="パス 381" d="M16.768,13.537h0a2.154,2.154,0,0,0,2.154-2.154V8.154a2.154,2.154,0,1,0-4.307,0V9.23A8.614,8.614,0,0,0,6,17.844V30.765C6,42.61,18.921,46.917,24.3,46.917" transform="translate(-4.923 -5.028)" fill="none" stroke="#fff" stroke-linecap="round" stroke-linejoin="round" stroke-width="2"/>
      <path id="パス_382" data-name="パス 382" d="M108,189.691v2.692a18.843,18.843,0,1,0,37.686,0V180" transform="translate(-88.618 -147.803)" fill="none" stroke="#fff" stroke-linecap="round" stroke-linejoin="round" stroke-width="2"/>
      <path id="パス_383" data-name="パス 383" d="M115.537,13.537h0a2.154,2.154,0,0,1-2.154-2.154V8.154a2.154,2.154,0,1,1,4.307,0V9.23c4.738-1.378,8.614,1.531,8.614,6.466V30.765c0,11.844-12.921,16.151-18.3,16.151" transform="translate(-88.618 -5.028)" fill="none" stroke="#fff" stroke-linecap="round" stroke-linejoin="round" stroke-width="2"/>
      <ellipse id="楕円形_28" data-name="楕円形 28" cx="8.5" cy="8" rx="8.5" ry="8" transform="translate(48.674 15.5)" fill="none" stroke="#fff" stroke-linecap="round" stroke-linejoin="round" stroke-width="2"/>
      <path id="パス_384" data-name="パス 384" d="M306.461,117.23a3.23,3.23,0,1,1-3.23-3.23" transform="translate(-246.162 -93.647)" fill="none" stroke="#fff" stroke-linecap="round" stroke-linejoin="round" stroke-width="2"/>
    </g>
  </g>
</svg>
